<?xml version="1.0" standalone="no"?>
<!DOCTYPE svg PUBLIC "-//W3C//DTD SVG 20010904//EN"
 "http://www.w3.org/TR/2001/REC-SVG-20010904/DTD/svg10.dtd">
<svg version="1.0" xmlns="http://www.w3.org/2000/svg"
 width="1007.000000pt" height="1280.000000pt" viewBox="0 0 1007.000000 1280.000000"
 preserveAspectRatio="xMidYMid meet">
<metadata>
Created by potrace 1.15, written by Peter Selinger 2001-2017
</metadata>
<g transform="translate(0.000000,1280.000000) scale(0.100000,-0.100000)"
fill="#000000" stroke="none">
<path d="M8364 12753 c-167 -175 -329 -498 -413 -828 -8 -29 -20 -45 -43 -59
-18 -10 -69 -39 -113 -64 -249 -141 -485 -334 -570 -468 -21 -32 -43 -63 -50
-69 -7 -5 -66 -51 -132 -102 -66 -51 -140 -116 -166 -145 -26 -29 -62 -69 -81
-88 -18 -19 -58 -69 -86 -110 -131 -185 -159 -204 -336 -220 -139 -13 -151
-16 -349 -80 -82 -27 -202 -58 -265 -70 -263 -48 -348 -75 -577 -185 -256
-123 -392 -222 -624 -456 -165 -166 -169 -169 -415 -265 -178 -69 -246 -101
-312 -146 -67 -46 -119 -66 -268 -99 -160 -36 -190 -50 -358 -163 -102 -68
-142 -89 -222 -114 -165 -52 -377 -86 -639 -102 -369 -23 -457 -35 -620 -85
-104 -31 -182 -48 -255 -56 -167 -16 -365 -48 -438 -70 -37 -12 -121 -49 -187
-82 -102 -52 -131 -72 -193 -136 -40 -41 -83 -92 -94 -115 -11 -22 -48 -152
-83 -290 -38 -153 -83 -303 -114 -383 -71 -185 -95 -275 -88 -343 14 -161 195
-336 366 -356 69 -8 67 -5 107 -155 55 -213 94 -253 287 -290 56 -11 102 -21
102 -22 1 -1 10 -24 20 -52 57 -160 176 -270 312 -291 34 -5 47 -13 63 -39 58
-94 171 -156 296 -163 98 -5 156 10 305 79 59 27 118 53 133 58 24 10 34 1
188 -167 90 -97 271 -291 404 -432 781 -828 1086 -1172 1396 -1575 225 -293
264 -353 286 -438 19 -71 19 -78 4 -86 -28 -14 -225 -76 -447 -141 -444 -130
-564 -169 -671 -215 -49 -22 -51 -24 -57 -70 -4 -26 -7 -144 -7 -261 l0 -214
25 -16 c14 -9 69 -29 123 -44 102 -29 152 -49 152 -60 0 -4 -21 -10 -47 -14
-66 -9 -181 -49 -288 -101 -116 -56 -82 -58 72 -4 143 50 285 89 323 89 40 0
90 -11 90 -20 0 -11 -194 -80 -454 -161 -126 -39 -273 -90 -327 -112 l-99 -42
-1 -100 c-2 -152 4 -144 -129 -188 -192 -64 -619 -188 -1127 -326 -266 -73
-522 -147 -571 -166 -48 -18 -125 -41 -172 -50 -138 -26 -222 -47 -266 -66
-41 -17 -74 -51 -74 -76 0 -22 86 -15 178 13 46 14 96 24 110 22 26 -3 27 -6
30 -73 2 -38 8 -75 14 -82 19 -23 36 4 43 65 14 134 13 131 56 142 22 6 47 14
55 17 11 4 14 -6 14 -45 0 -47 17 -82 39 -82 11 0 21 52 21 106 0 39 3 44 28
50 15 3 65 18 112 34 116 39 159 45 166 25 13 -32 -25 -55 -88 -55 -66 0 -74
-8 -64 -66 8 -38 43 -81 56 -68 5 5 10 27 12 49 3 38 5 40 41 46 29 5 40 2 44
-8 3 -8 2 -62 -1 -119 -6 -88 -5 -109 9 -130 18 -27 40 -31 49 -8 3 9 6 47 6
85 0 75 -6 68 72 83 9 2 34 0 56 -4 34 -6 41 -4 45 11 8 32 84 50 117 29 12
-8 10 -14 -13 -38 -31 -33 -33 -44 -11 -63 14 -12 16 -28 10 -111 -7 -105 1
-138 33 -138 26 0 33 38 26 129 -9 103 0 124 62 138 26 6 50 10 52 7 2 -2 2
-48 0 -101 -7 -190 -5 -228 15 -258 18 -27 20 -28 27 -10 4 11 8 52 8 91 1 97
15 134 50 134 16 0 36 -9 46 -21 19 -20 18 -21 -5 -64 -20 -36 -22 -46 -11
-59 7 -9 16 -45 19 -81 5 -68 23 -98 44 -77 6 6 15 62 19 123 8 120 24 161 68
167 20 3 21 -1 21 -66 0 -68 14 -132 30 -132 21 0 33 106 25 219 -5 64 -9 149
-10 188 0 54 -5 77 -17 90 -16 15 -18 15 -28 -11 -5 -15 -10 -51 -11 -79 0
-29 -4 -72 -7 -97 -7 -43 -8 -45 -42 -45 -31 0 -35 3 -38 28 -2 20 5 38 27 63
31 35 39 54 21 54 -5 0 -18 20 -28 44 -11 24 -24 46 -30 50 -6 3 -21 -13 -34
-36 -26 -47 -69 -71 -91 -49 -10 10 -5 19 26 44 46 40 51 77 9 77 -15 0 -55
-7 -87 -15 -58 -15 -105 -14 -105 4 0 18 38 39 85 45 27 3 85 24 129 46 101
51 107 51 104 0 -2 -40 12 -67 30 -56 5 3 12 33 16 65 7 60 26 95 26 47 0 -37
10 -56 30 -56 25 0 33 31 26 94 -3 28 -2 58 4 66 7 11 10 1 10 -37 0 -40 5
-58 20 -73 41 -41 51 -21 49 97 -1 47 3 89 9 95 12 12 18 -17 27 -134 6 -76
27 -148 44 -148 17 0 23 46 27 185 l4 140 27 12 c16 6 31 9 36 6 15 -9 6 -53
-18 -81 -31 -37 -31 -57 -2 -124 51 -115 75 -94 84 70 3 59 9 114 14 122 12
22 11 -45 -3 -171 -9 -85 -9 -112 1 -137 17 -40 26 -40 47 0 13 25 19 72 23
185 8 197 28 227 23 35 -1 -75 -3 -152 -3 -171 0 -19 6 -41 14 -49 13 -13 17
-11 33 13 13 20 19 56 23 155 3 71 9 131 13 135 4 4 6 -58 5 -138 -2 -141 -1
-146 22 -171 13 -14 28 -23 32 -20 5 3 9 45 9 94 0 49 4 91 9 94 11 7 26 -174
17 -206 -14 -53 -24 -55 -57 -16 -17 21 -35 38 -40 38 -36 0 -55 -189 -24
-236 13 -20 19 -23 31 -13 8 6 14 26 14 45 0 18 5 36 11 39 7 5 8 -7 4 -39 -4
-26 -4 -121 0 -211 l7 -165 25 6 25 7 -7 -79 c-6 -78 -6 -80 33 -159 22 -44
39 -82 36 -86 -2 -3 -32 -14 -66 -23 -35 -10 -133 -40 -220 -67 -230 -72 -406
-119 -450 -119 -80 0 -143 -47 -103 -76 31 -23 109 -16 231 21 63 19 123 35
132 35 14 0 17 -10 17 -62 0 -52 3 -63 18 -66 13 -3 22 6 30 27 14 39 23 39
31 1 5 -28 8 -30 54 -30 49 0 49 0 62 42 12 38 14 40 18 18 8 -52 46 -67 62
-25 12 32 18 31 30 -1 7 -19 16 -25 33 -22 18 2 23 10 25 41 5 53 30 50 34 -5
2 -36 7 -44 26 -46 17 -3 22 1 22 21 0 33 9 38 34 22 11 -8 39 -18 61 -23 22
-5 48 -13 57 -17 13 -5 19 0 25 24 10 40 24 43 40 10 12 -24 19 -27 95 -33
172 -13 658 -19 1059 -11 l416 7 7 197 c4 108 14 264 21 346 16 164 24 338 29
632 3 156 7 198 20 217 l16 25 61 -24 c137 -54 252 -129 366 -239 62 -59 73
-74 73 -103 0 -22 5 -33 15 -33 55 0 88 -53 120 -194 31 -134 66 -531 58 -657
-5 -79 -4 -88 16 -108 11 -11 25 -21 29 -21 15 0 32 158 32 290 0 122 -17 297
-40 410 -6 30 -15 94 -19 141 -7 75 -13 94 -46 150 -79 132 -231 255 -467 379
-65 34 -118 65 -118 69 0 11 35 27 132 61 l88 30 62 -31 c271 -136 466 -276
500 -360 11 -26 27 -50 35 -53 42 -17 -45 131 -114 193 -28 25 -111 82 -183
126 -72 44 -152 98 -177 120 l-46 41 63 19 62 19 20 -27 c11 -15 28 -27 38
-27 29 0 118 -37 164 -69 22 -16 74 -59 115 -97 76 -70 87 -66 39 13 -38 64
-164 148 -288 192 l-35 12 57 25 c32 13 120 42 197 65 l139 40 46 -34 c24 -19
78 -53 119 -76 41 -23 80 -48 87 -56 21 -25 31 -17 16 13 -20 39 -47 61 -133
107 -94 50 -102 65 -36 65 57 0 108 -23 183 -79 50 -39 58 -41 95 -35 43 8 87
8 123 -1 17 -4 22 -1 22 15 0 11 11 27 24 35 22 15 27 15 54 1 17 -9 51 -40
77 -71 26 -30 51 -55 56 -55 24 0 6 54 -31 94 -44 48 -51 76 -20 76 31 0 74
-25 107 -64 31 -35 71 -61 80 -53 8 9 -25 61 -61 96 -44 42 -45 55 -7 71 37
15 56 5 113 -59 23 -26 53 -54 66 -60 20 -10 22 -9 22 10 0 14 -22 42 -60 77
-33 30 -60 58 -60 62 0 5 19 15 42 25 64 25 95 14 184 -65 78 -70 102 -84 90
-54 -3 9 -6 20 -6 24 0 5 -20 32 -45 60 -62 70 -70 86 -44 93 28 8 61 -6 116
-48 48 -37 67 -42 79 -24 4 7 -16 31 -47 59 l-54 47 33 8 c18 4 60 18 92 31
65 26 109 30 143 13 12 -6 51 -41 86 -78 l65 -66 4 29 c3 24 -6 38 -52 85 -31
31 -56 60 -56 64 0 4 19 7 43 7 50 0 154 -38 210 -77 45 -31 137 -134 195
-216 46 -66 154 -313 174 -397 16 -67 16 -328 0 -485 -6 -60 -12 -246 -13
-413 -2 -288 -1 -304 17 -329 11 -15 25 -28 31 -30 7 -3 12 74 16 229 3 128
11 316 18 418 23 368 -1 642 -72 818 -16 41 -29 75 -29 77 0 1 10 5 23 8 12 2
155 43 317 90 162 47 446 127 630 177 184 50 397 111 472 135 75 25 152 45
171 45 81 0 137 29 137 71 0 17 -5 19 -42 13 -93 -12 -160 -28 -316 -75 -89
-27 -184 -51 -211 -55 -47 -6 -49 -5 -55 21 -4 15 -4 125 0 244 5 166 4 226
-6 256 -13 38 -13 39 -22 15 -37 -99 -54 -342 -35 -502 l7 -66 -52 -15 c-29
-9 -168 -47 -308 -86 -140 -39 -366 -101 -502 -139 -278 -77 -257 -78 -297 9
-13 28 -56 79 -111 132 -101 97 -106 111 -96 230 7 82 -1 105 -31 88 -23 -12
-33 -50 -33 -122 0 -26 -4 -50 -9 -54 -14 -8 -136 43 -157 66 -16 18 -16 19 9
19 17 0 27 6 27 14 0 8 7 99 16 203 17 198 14 361 -7 374 -7 4 -76 19 -153 34
-78 14 -159 34 -181 44 l-40 17 87 22 c115 29 128 29 128 -3 0 -28 35 -69 51
-59 7 4 9 26 5 58 -7 52 -7 52 27 64 18 7 38 12 44 12 6 0 12 -31 15 -76 3
-60 7 -79 22 -90 11 -7 23 -11 27 -8 5 3 9 43 9 89 0 46 4 86 9 89 14 9 21
-79 21 -287 1 -186 2 -199 21 -218 45 -45 51 2 34 272 -6 99 -5 149 5 187 13
55 45 106 61 97 14 -9 11 -142 -7 -305 -19 -186 -7 -290 36 -290 26 0 31 43
39 331 5 232 8 259 25 278 10 11 22 18 26 16 19 -12 20 -90 4 -197 -24 -160
-24 -313 -1 -356 33 -60 42 -36 49 134 17 368 21 412 45 436 12 12 25 19 28
17 3 -3 1 -30 -5 -59 -12 -65 -12 -205 0 -370 9 -125 2 -319 -10 -270 -8 35
-32 31 -53 -10 -23 -46 -20 -148 5 -164 25 -15 33 -1 33 60 l0 54 30 -6 c29
-5 31 -3 50 48 l20 53 5 -92 c5 -90 19 -128 39 -107 19 18 29 129 20 229 -10
119 -11 271 -3 303 4 15 14 22 30 22 l23 0 3 169 c3 149 5 171 22 190 28 31
36 26 36 -24 0 -49 25 -85 59 -85 18 0 19 5 14 55 -8 72 10 115 46 115 15 0
65 11 112 25 108 32 109 32 109 -7 0 -20 12 -51 29 -77 28 -42 29 -46 15 -74
-13 -24 -14 -40 -6 -86 8 -43 7 -76 -4 -132 -20 -104 -18 -145 8 -182 l22 -31
8 30 c23 84 19 370 -8 568 l-6 41 54 13 c81 18 78 21 78 -66 0 -66 3 -82 20
-97 11 -10 23 -15 28 -11 4 4 9 53 12 109 5 100 5 102 32 111 15 5 30 7 33 4
4 -3 1 -50 -5 -105 -9 -71 -9 -106 -1 -126 11 -27 36 -45 48 -33 3 3 9 59 13
123 9 140 33 208 55 156 14 -34 18 -231 6 -314 -11 -70 -10 -84 2 -97 28 -27
47 -7 47 50 1 29 7 81 14 115 8 39 11 97 8 155 -4 81 -2 96 14 115 29 33 60
38 68 11 10 -37 7 -91 -9 -176 -22 -116 -22 -212 0 -245 10 -15 20 -25 23 -22
12 12 43 238 49 357 l6 126 81 19 c45 11 84 18 89 16 4 -2 7 -42 7 -89 0 -83
18 -154 39 -154 26 0 39 138 22 227 l-8 43 41 10 c22 6 129 35 236 65 107 30
220 58 250 62 43 7 57 13 67 32 15 32 0 61 -31 61 -13 0 -52 -11 -87 -24 -35
-13 -95 -29 -134 -35 -42 -8 -94 -25 -130 -45 -44 -25 -78 -35 -130 -40 -95
-9 -195 -36 -422 -112 -106 -35 -204 -64 -217 -64 -14 0 -28 -5 -31 -10 -4 -7
-12 -7 -25 0 -15 8 -27 5 -55 -14 -20 -14 -62 -30 -93 -36 -357 -68 -657 -144
-1260 -321 -314 -92 -447 -127 -460 -121 -9 5 -42 12 -74 15 -31 3 -66 11 -79
18 -22 12 -22 12 15 31 21 11 109 38 195 60 86 21 231 64 322 93 92 30 201 60
242 66 75 11 119 30 105 45 -19 18 -105 15 -163 -6 -187 -70 -292 -102 -395
-121 -63 -11 -133 -29 -155 -39 -22 -10 -80 -30 -129 -44 -49 -14 -99 -32
-112 -41 -21 -13 -33 -12 -140 16 -65 16 -126 35 -137 41 -18 9 -16 12 19 27
91 41 190 74 299 101 65 16 125 35 134 43 9 8 48 25 86 37 77 25 113 49 93 61
-20 12 -67 -1 -163 -46 -64 -30 -137 -53 -252 -79 -99 -23 -192 -50 -237 -72
-97 -44 -137 -44 -241 1 -44 19 -86 35 -94 35 -24 0 -5 11 61 35 35 13 113 44
173 69 61 24 157 54 215 66 113 24 144 36 174 69 19 21 19 21 -15 21 -19 0
-63 -14 -99 -31 -36 -17 -99 -37 -140 -44 -41 -7 -129 -34 -195 -60 -66 -26
-142 -53 -170 -61 -55 -15 -190 -19 -165 -5 18 10 417 145 680 229 102 33 235
70 295 81 86 17 124 31 175 61 39 23 109 51 175 70 123 35 198 67 189 81 -9
15 -53 10 -94 -11 -22 -11 -57 -20 -78 -20 -27 0 -73 -17 -153 -56 -102 -51
-123 -58 -199 -64 -72 -6 -99 -14 -175 -50 -54 -26 -112 -47 -145 -51 -30 -4
-116 -29 -190 -57 -74 -27 -205 -71 -290 -97 -85 -26 -181 -60 -212 -76 -59
-30 -102 -36 -128 -19 -13 8 -11 17 14 62 97 180 91 160 91 292 0 139 3 149
106 393 70 165 116 263 142 297 8 10 34 26 58 35 37 14 48 25 71 71 15 30 28
62 28 72 0 22 -132 154 -200 199 -75 50 -166 87 -249 101 -65 11 -72 10 -92
-8 -46 -42 -62 -92 -56 -179 4 -80 4 -82 -32 -138 -20 -31 -54 -87 -76 -123
-22 -36 -50 -70 -62 -75 -13 -5 -23 -17 -23 -27 0 -28 -130 -202 -151 -202
-13 0 -403 292 -494 370 -114 98 -266 255 -387 402 -236 284 -589 745 -715
933 -106 159 -227 320 -457 610 -105 132 -234 298 -287 368 l-97 129 115 111
c63 62 143 130 176 151 85 54 148 121 245 262 l83 121 347 37 c191 21 426 48
522 62 96 13 253 31 349 40 196 17 293 40 551 129 91 31 271 83 401 115 129
33 273 71 320 86 202 64 779 338 949 452 58 39 179 134 270 212 91 78 197 160
235 182 111 65 148 100 233 226 45 66 96 132 115 149 19 17 72 45 118 62 46
18 98 45 114 60 17 16 46 37 65 46 19 10 88 53 152 96 65 44 150 94 190 113
49 22 98 56 148 103 91 84 123 106 175 123 40 13 278 192 408 308 109 96 239
253 263 316 5 14 10 13 28 -7 18 -19 37 -25 93 -31 66 -7 70 -8 84 -39 l14
-32 81 2 c118 3 163 27 118 64 -16 13 -27 10 -116 -26 -15 -6 -17 -3 -12 22
l6 30 -72 12 c-74 12 -136 38 -159 65 -11 13 -11 20 3 38 66 90 65 89 55 115
-8 22 -3 34 45 97 88 115 135 227 151 351 10 88 27 149 51 185 13 19 24 47 24
62 0 35 -17 78 -30 78 -14 0 -24 -27 -75 -208 -50 -173 -79 -243 -122 -293
-17 -19 -36 -54 -43 -79 -21 -79 -85 -183 -125 -205 -62 -32 -110 -105 -71
-105 33 0 22 -20 -29 -54 -50 -33 -54 -39 -44 -57 9 -18 6 -27 -28 -63 -21
-22 -70 -75 -108 -116 -90 -99 -173 -170 -236 -205 -69 -37 -55 -18 40 54 43
33 90 74 104 91 27 31 55 105 44 116 -14 14 -50 -11 -86 -60 -56 -75 -125
-135 -327 -281 -204 -147 -304 -224 -354 -271 -19 -18 -60 -46 -90 -61 -30
-16 -77 -43 -105 -60 -160 -97 -234 -136 -277 -142 -26 -5 -76 -26 -115 -49
-37 -22 -76 -44 -86 -48 -10 -3 -29 -30 -44 -58 -37 -74 -50 -87 -78 -74 -28
12 -77 -10 -101 -48 -21 -32 -11 -41 28 -26 38 14 45 10 30 -22 -21 -46 -86
-108 -177 -169 -90 -60 -154 -112 -295 -241 -129 -118 -200 -165 -375 -251
-200 -98 -334 -149 -458 -176 -50 -10 -93 -19 -97 -19 -3 0 -47 -25 -99 -55
-153 -91 -296 -142 -591 -208 -106 -24 -182 -48 -240 -75 -99 -47 -214 -78
-481 -128 -168 -32 -215 -37 -354 -38 -123 -2 -168 -6 -197 -18 -20 -9 -72
-23 -115 -32 -82 -16 -338 -46 -396 -46 -31 0 -34 2 -29 25 6 32 -14 33 -70 4
-22 -11 -49 -18 -59 -16 -22 6 -53 -30 -89 -102 -38 -76 -100 -120 -100 -72 0
26 -15 34 -39 21 -15 -7 -21 -23 -23 -57 -3 -52 -22 -68 -31 -26 -8 38 -65 96
-86 87 -9 -4 -27 -6 -41 -4 -40 3 -44 3 -65 -5 -16 -7 -15 -3 8 22 15 16 27
32 27 36 0 15 -49 6 -74 -14 -15 -12 -29 -19 -32 -17 -9 10 36 56 71 72 25 12
35 24 35 40 0 27 11 41 73 90 58 46 65 61 43 85 -16 18 -16 20 6 35 12 9 27
16 33 16 12 0 208 401 200 409 -3 2 -18 0 -32 -5 -36 -12 -68 -62 -83 -126 -8
-34 -24 -65 -45 -88 -18 -19 -53 -67 -78 -107 -49 -76 -74 -99 -124 -109 -37
-7 -52 10 -29 35 21 23 20 31 -3 31 -12 0 -43 -27 -76 -64 -53 -60 -95 -88
-95 -64 0 6 16 28 35 49 37 41 44 59 22 59 -18 0 -55 -26 -105 -74 -23 -22
-42 -36 -42 -30 0 6 16 25 35 44 20 19 35 44 35 57 0 26 -5 28 -40 9 -23 -13
-28 -11 -82 36 -41 35 -58 57 -58 74 0 13 -6 24 -13 24 -21 0 -54 40 -40 48 6
4 16 32 21 62 6 30 18 74 26 98 8 23 11 42 7 42 -29 0 -85 -75 -129 -172 -7
-14 19 -8 36 8 14 15 16 15 24 -6 10 -27 5 -36 -27 -44 -24 -6 -85 16 -85 31
0 4 16 21 36 39 38 35 42 66 10 72 -12 3 -31 -9 -52 -32 -18 -20 -39 -36 -46
-36 -7 1 -3 9 10 19 26 23 28 31 6 31 -9 0 -36 18 -60 40 -24 22 -48 40 -54
40 -13 0 -13 -39 1 -79 6 -17 8 -38 5 -47 -10 -26 -32 0 -45 51 -12 48 -46 79
-57 51 -3 -9 -1 -30 5 -47 15 -43 14 -56 -4 -63 -10 -4 -20 5 -29 29 -9 20
-22 35 -31 35 -14 0 -16 -11 -13 -66 2 -47 -1 -68 -9 -71 -9 -3 -13 5 -13 24
0 38 -14 57 -35 49 -14 -5 -17 -15 -13 -51 3 -25 2 -45 -2 -45 -9 0 -20 36
-20 70 0 29 -16 50 -38 50 -15 0 -15 1 3 -120 6 -40 -4 -22 -26 49 -14 43 -41
72 -55 58 -4 -4 -1 -25 6 -47 15 -46 7 -66 -11 -27 -12 26 -37 43 -47 32 -3
-3 4 -33 15 -68 12 -34 19 -64 16 -67 -3 -3 -8 1 -10 7 -8 23 -41 58 -48 51
-4 -4 -2 -30 5 -58 7 -28 10 -65 6 -82 -5 -23 -3 -29 8 -25 17 7 41 -49 25
-58 -5 -4 -9 5 -9 19 0 29 -15 35 -24 10 -3 -9 -6 -62 -5 -120 1 -103 0 -104
-41 -181 -52 -98 -130 -198 -172 -219 -64 -33 -189 -12 -275 48 -106 73 -128
195 -74 427 17 74 31 160 31 192 0 43 7 69 30 112 17 31 30 72 30 91 0 22 12
51 33 82 30 44 58 68 198 171 24 18 76 62 116 97 40 36 84 69 100 72 15 4 38
20 52 37 13 16 56 44 95 62 39 17 80 42 90 54 l19 21 -39 0 c-48 0 -96 -22
-198 -89 -44 -28 -84 -50 -90 -48 -6 2 -22 23 -35 46 -23 41 -24 42 -38 22 -8
-12 -22 -21 -31 -21 -9 0 -29 -7 -44 -14 -22 -12 -28 -12 -28 -2 0 7 -9 21
-21 32 -23 21 -52 10 -57 -22 -7 -45 -16 -46 -21 -5 l-6 45 -38 -33 -37 -33
-40 16 c-81 32 -166 13 -286 -65 -103 -67 -269 -235 -311 -314 -39 -75 -83
-203 -83 -245 0 -37 12 -61 58 -118 27 -33 36 -53 36 -85 1 -39 -1 -42 -44
-63 -53 -26 -85 -58 -77 -78 7 -17 40 -9 145 33 36 14 74 21 120 21 63 0 113
-15 250 -77 8 -3 15 3 19 16 12 45 18 17 18 -81 0 -121 17 -179 73 -253 72
-96 207 -140 365 -121 46 6 62 14 95 47 57 55 72 52 72 -15 0 -33 -5 -58 -14
-65 -26 -22 -140 -61 -226 -78 -126 -26 -448 -23 -633 5 -127 19 -140 24 -168
52 -17 16 -41 32 -55 35 -13 3 -34 7 -47 10 -18 3 -27 18 -45 74 -13 39 -27
73 -33 77 -5 3 -20 -1 -32 -9 -22 -14 -24 -13 -44 17 -40 59 -46 81 -46 151 0
88 38 230 97 369 26 60 49 134 55 177 8 46 23 92 42 125 17 30 38 90 49 143
20 97 34 131 52 131 6 0 47 35 92 79 156 151 224 176 626 230 124 17 250 38
280 46 242 66 280 72 695 100 283 20 437 39 555 71 163 44 376 143 454 212 65
58 176 98 336 122 87 14 137 33 205 82 72 51 111 69 290 132 240 85 296 115
374 199 297 321 531 489 816 585 50 17 185 56 300 87 116 31 282 78 370 105
88 27 195 56 237 64 87 18 198 21 198 6 0 -6 -19 -46 -42 -90 -23 -44 -39 -82
-36 -86 11 -10 48 7 85 39 33 29 93 135 93 164 0 7 20 21 43 31 37 16 50 31
84 93 96 173 221 310 673 737 234 220 320 287 440 343 47 22 100 48 119 57 40
20 112 99 143 158 l22 42 -21 19 -22 18 58 170 c50 149 79 216 129 299 7 12
10 30 8 40 -4 13 12 42 48 85 94 116 130 171 112 171 -9 0 -37 -21 -62 -47z
m-864 -3723 c0 -5 -5 -10 -11 -10 -5 0 -7 5 -4 10 3 6 8 10 11 10 2 0 4 -4 4
-10z m-59 -93 c-11 -17 -21 -26 -21 -19 0 20 34 75 38 62 2 -6 -6 -25 -17 -43z
m-6169 -449 c21 -8 27 -17 31 -51 2 -23 1 -48 -3 -56 -8 -14 -13 -8 -46 53
-15 28 -31 30 -44 6 -14 -26 5 -71 38 -85 25 -11 27 -20 8 -53 l-13 -24 -26
31 c-28 34 -67 129 -67 166 0 34 51 40 122 13z m-184 -41 c23 -24 59 -102 86
-185 17 -50 17 -54 1 -79 l-17 -25 -23 39 c-43 71 -99 273 -77 273 5 0 18 -10
30 -23z m-80 -39 c7 -7 12 -23 12 -36 0 -13 15 -60 34 -106 40 -97 52 -148 38
-172 -8 -14 -16 -6 -47 50 -52 93 -78 180 -70 234 7 44 13 50 33 30z m-37
-213 c57 -137 60 -166 21 -205 -36 -35 -48 -37 -57 -9 -8 25 0 35 18 21 7 -6
18 -7 25 -3 10 6 2 37 -33 130 -25 67 -48 143 -51 169 l-6 47 21 -25 c11 -14
39 -70 62 -125z m-105 -22 c-7 -7 -36 54 -35 74 0 10 9 -2 20 -26 11 -24 17
-46 15 -48z m-1 -178 l6 -40 -31 35 c-38 43 -70 128 -69 183 l1 42 43 -90 c24
-49 47 -108 50 -130z m-119 37 c-6 -6 -26 43 -25 61 0 7 7 -3 15 -22 8 -18 13
-36 10 -39z m5234 13 c0 -2 -13 -11 -30 -20 -18 -9 -30 -11 -30 -5 0 6 10 15
23 20 26 10 37 12 37 5z m-5284 -32 c-7 -7 -26 7 -26 19 0 6 6 6 15 -2 9 -7
13 -15 11 -17z m94 -63 c11 -21 20 -44 20 -50 0 -17 -20 -1 -29 23 -28 76 -23
90 9 27z m376 4 c10 4 14 -2 14 -19 0 -14 -3 -25 -7 -25 -16 0 -53 45 -53 64
0 20 1 20 16 -2 9 -13 22 -21 30 -18z m-16 -108 c0 -13 -49 34 -62 59 -6 12 4
6 26 -14 20 -19 36 -39 36 -45z m1314 43 c8 -12 12 -28 9 -36 -5 -12 -11 -10
-31 10 -13 14 -21 30 -18 36 11 17 23 13 40 -10z m-294 -375 c6 -32 10 -93 10
-134 -1 -69 -2 -73 -16 -55 -12 16 -14 42 -12 120 2 55 -1 111 -6 125 -6 19
-5 22 3 14 6 -6 16 -37 21 -70z m65 -66 c4 -58 2 -85 -3 -73 -12 27 -23 204
-11 183 5 -9 11 -58 14 -110z m-185 -23 c-7 -47 -7 -45 -8 25 0 48 2 66 7 50
4 -14 5 -47 1 -75z m1280 6 c0 -19 -12 -41 -20 -36 -10 6 -1 45 11 45 5 0 9
-4 9 -9z m-883 -58 c-3 -10 -5 -4 -5 12 0 17 2 24 5 18 2 -7 2 -21 0 -30z
m-461 -133 c8 -131 20 -188 49 -222 30 -35 33 -53 7 -39 -13 7 -22 7 -29 0
-21 -21 -73 330 -58 387 l8 29 8 -30 c5 -16 11 -73 15 -125z m534 96 c0 -28
-16 -8 -24 29 -6 28 -5 29 9 11 8 -11 15 -29 15 -40z m47 -38 c-3 -8 -6 -5 -6
6 -1 11 2 17 5 13 3 -3 4 -12 1 -19z m-660 -10 c-3 -8 -6 -5 -6 6 -1 11 2 17
5 13 3 -3 4 -12 1 -19z m204 -199 c10 -79 8 -112 -5 -98 -4 4 -47 285 -45 297
3 23 41 -125 50 -199z m196 149 c-2 -13 -4 -5 -4 17 -1 22 1 32 4 23 2 -10 2
-28 0 -40z m-539 1 c4 -40 -13 -30 -24 15 -5 22 -4 28 7 24 8 -2 15 -20 17
-39z m709 -26 c-3 -10 -5 -2 -5 17 0 19 2 27 5 18 2 -10 2 -26 0 -35z m-592
-15 c2 -13 6 -39 7 -58 3 -31 6 -35 31 -33 24 2 27 -2 27 -28 0 -35 -2 -35
-46 -5 -34 23 -36 27 -37 85 -2 60 8 82 18 39z m381 -49 c5 -49 -8 -30 -21 31
-5 27 -4 32 5 24 6 -6 14 -31 16 -55z m816 39 c-7 -7 -12 -8 -12 -2 0 14 12
26 19 19 2 -3 -1 -11 -7 -17z m-752 -63 c0 -19 -4 -35 -10 -35 -5 0 -10 16
-10 35 0 19 5 35 10 35 6 0 10 -16 10 -35z m-500 -19 c0 -39 4 -48 34 -71 19
-14 53 -51 77 -81 30 -39 45 -52 54 -44 6 5 15 7 18 3 11 -10 8 -80 -5 -108
-15 -32 -37 -33 -31 -1 3 13 0 32 -5 42 -9 16 -12 13 -26 -21 -9 -21 -19 -49
-23 -62 -3 -14 -16 -31 -29 -40 -41 -27 -187 -73 -231 -73 -24 0 -78 -12 -120
-26 -65 -22 -96 -26 -188 -27 -126 0 -305 21 -305 36 0 5 -8 16 -17 23 -16 11
-16 17 -6 45 11 29 10 39 -8 76 -35 72 -123 133 -152 104 -8 -8 2 -22 37 -53
65 -58 73 -74 38 -77 -102 -7 -90 -14 -123 69 -16 41 -32 95 -36 119 -5 39 -4
43 13 38 10 -3 89 -11 176 -18 186 -14 455 -7 553 15 101 23 206 77 252 131
21 24 41 44 46 45 4 0 7 -20 7 -44z m397 -128 c-3 -7 -5 -2 -5 12 0 14 2 19 5
13 2 -7 2 -19 0 -25z m418 -63 c9 -30 15 -71 13 -92 -3 -38 -3 -37 -15 17 -28
134 -27 177 2 75z m-408 -52 c-3 -10 -5 -4 -5 12 0 17 2 24 5 18 2 -7 2 -21 0
-30z m133 2 c0 -3 7 -48 15 -100 10 -61 13 -107 7 -127 -7 -29 -10 -20 -25 69
-19 116 -21 163 -7 163 6 0 10 -2 10 -5z m-228 -40 c4 -39 -6 -48 -16 -12 -8
31 -7 47 3 47 5 0 11 -16 13 -35z m47 8 c-1 -27 -15 -58 -21 -47 -8 13 2 64
13 64 5 0 9 -8 8 -17z m411 -24 c0 -6 -4 -7 -10 -4 -5 3 -10 11 -10 16 0 6 5
7 10 4 6 -3 10 -11 10 -16z m-150 -6 c0 -10 -5 -25 -10 -33 -7 -11 -10 -7 -10
18 0 17 5 32 10 32 6 0 10 -8 10 -17z m-320 -59 c8 -19 15 -23 33 -19 33 9 77
-28 77 -64 0 -15 -3 -31 -7 -34 -8 -9 -52 19 -74 46 -18 23 -39 16 -39 -13 0
-24 51 -66 90 -75 28 -6 30 -9 30 -56 0 -59 -16 -65 -25 -9 -13 75 -45 60 -45
-21 0 -29 -6 -51 -15 -59 -16 -13 -20 -7 -27 35 -2 12 -12 21 -27 23 -22 3
-23 1 -19 -44 2 -40 0 -49 -14 -52 -11 -2 -18 3 -18 12 0 26 -24 17 -45 -16
-13 -22 -36 -38 -68 -49 -82 -29 -240 -69 -304 -75 l-60 -7 -23 39 c-56 94
-123 144 -192 144 -45 0 -49 -2 -46 -21 2 -12 15 -31 30 -42 26 -19 29 -20 46
-4 27 24 32 21 32 -18 0 -40 -11 -43 -47 -15 -14 11 -41 20 -59 20 -24 0 -38
7 -48 23 -20 32 -59 127 -54 132 2 2 83 7 180 11 l175 7 7 -29 c11 -41 35 -64
68 -64 24 0 28 4 28 28 0 15 9 45 19 67 17 38 22 41 87 58 46 12 97 35 149 69
111 72 178 108 188 101 4 -3 12 -16 17 -29z m120 21 c0 -8 -4 -15 -10 -15 -5
0 -10 7 -10 15 0 8 5 15 10 15 6 0 10 -7 10 -15z m307 -62 c-3 -10 -5 -4 -5
12 0 17 2 24 5 18 2 -7 2 -21 0 -30z m-53 -5 c3 -13 6 -50 6 -83 0 -90 20
-144 53 -145 4 0 7 8 7 17 0 12 3 14 10 7 14 -14 -5 -64 -24 -64 -18 0 -52 34
-72 73 -22 42 -29 120 -14 172 14 50 25 57 34 23z m-174 -114 c0 -30 -23 -74
-34 -64 -3 3 -2 39 1 80 6 72 7 74 19 45 7 -16 13 -44 14 -61z m237 54 c-3 -8
-6 -5 -6 6 -1 11 2 17 5 13 3 -3 4 -12 1 -19z m73 -84 c0 -13 -4 -24 -10 -24
-5 0 -10 14 -10 31 0 17 4 28 10 24 6 -3 10 -17 10 -31z m-227 -23 c-2 -10 5
-49 16 -86 33 -105 30 -115 -38 -164 -33 -22 -61 -41 -63 -41 -3 0 -10 38 -17
84 -11 70 -10 89 1 112 25 52 37 40 40 -38 2 -58 6 -73 19 -76 23 -4 29 31 20
109 -10 76 -5 119 14 119 8 0 11 -8 8 -19z m487 -101 c447 -574 791 -1030
1055 -1400 109 -151 183 -241 390 -470 247 -274 476 -511 557 -575 40 -32 79
-64 87 -71 32 -28 -182 -366 -257 -405 -18 -9 -41 -15 -52 -12 -44 12 -108 86
-217 252 -212 322 -200 307 -762 951 -445 509 -699 788 -972 1065 -141 143
-265 278 -276 300 l-21 40 37 20 c21 12 44 36 54 58 10 20 24 37 30 37 7 0 31
10 55 22 33 18 49 37 77 90 20 37 53 82 74 100 32 27 37 37 30 51 -6 9 -7 22
-4 28 16 25 52 0 115 -81z m-386 -26 c9 -22 8 -24 -9 -24 -8 0 -15 9 -15 20 0
24 15 27 24 4z m-249 -109 l6 -90 -20 23 c-26 30 -37 103 -21 143 7 16 16 26
21 22 4 -4 10 -48 14 -98z m-84 -6 c11 -64 2 -119 -20 -119 -10 0 -28 119 -23
155 8 69 29 52 43 -36z m-95 16 c18 -44 18 -145 0 -170 -13 -18 -14 -18 -24 1
-12 23 -19 174 -8 192 11 18 16 15 32 -23z m-86 -31 c20 -52 4 -204 -20 -189
-4 3 -11 21 -14 41 -5 26 -12 34 -24 32 -13 -3 -17 -14 -17 -43 0 -34 -3 -40
-20 -37 -45 8 -167 66 -197 94 -39 36 -39 36 93 71 53 14 111 32 130 41 48 21
58 19 69 -10z m-300 -174 c0 -5 -4 -10 -10 -10 -5 0 -10 5 -10 10 0 6 5 10 10
10 6 0 10 -4 10 -10z m4109 -1460 c117 -46 163 -107 109 -144 l-22 -16 33 -34
c38 -39 34 -56 -13 -56 l-33 0 -12 -76 c-10 -57 -28 -106 -76 -202 -34 -70
-66 -138 -70 -152 -4 -13 -26 -41 -48 -63 l-40 -38 23 -24 23 -25 -26 -24
c-35 -33 -34 -52 8 -147 35 -80 42 -109 27 -109 -19 0 -41 38 -48 80 -12 79
-40 104 -65 59 -15 -30 9 -90 65 -158 l45 -54 -20 -40 c-23 -43 -31 -41 -49
16 -6 21 -35 73 -63 115 -50 74 -52 76 -55 47 -5 -42 86 -217 117 -225 20 -5
18 -12 -57 -165 -91 -184 -134 -255 -202 -330 l-48 -53 -59 106 c-33 59 -66
125 -74 146 -9 26 -26 46 -47 58 -32 18 -34 18 -72 -2 -48 -25 -120 -26 -168
-3 -50 24 -121 97 -159 163 -40 71 -49 100 -30 100 7 0 42 14 76 31 74 37 127
98 205 237 83 147 66 138 171 92 49 -22 92 -40 96 -40 4 0 9 12 11 28 2 22 7
26 28 23 14 -1 41 -16 61 -32 20 -16 44 -29 53 -29 27 0 18 36 -15 64 -32 27
-31 46 2 46 32 0 59 19 59 40 0 17 -7 20 -46 20 l-47 0 7 55 c13 112 50 183
186 351 39 49 83 111 97 138 22 44 27 48 52 43 31 -6 51 7 51 34 0 19 -19 29
-58 29 -26 0 -67 19 -47 21 28 3 83 -4 124 -17 25 -7 61 -14 79 -14 30 0 32 2
22 20 -18 33 -54 50 -127 62 -101 15 -100 14 -68 48 16 17 36 30 44 30 9 -1
49 -14 90 -30z m-1124 -1373 l47 -81 -23 -42 c-66 -122 -191 -239 -325 -306
l-82 -40 -100 35 c-55 20 -201 64 -324 98 -122 34 -247 70 -277 81 -50 19 -53
22 -36 34 40 29 187 78 395 131 118 30 249 69 290 88 41 18 95 36 120 40 25 4
70 19 100 32 77 34 131 43 152 26 9 -8 37 -51 63 -96z m1328 -234 c466 -128
815 -216 1009 -253 90 -17 192 -37 228 -44 l65 -13 -85 -42 c-47 -23 -148 -62
-225 -86 -295 -93 -455 -145 -585 -191 -116 -40 -149 -48 -232 -52 l-96 -5
-311 89 c-171 48 -311 90 -311 93 0 4 16 11 35 17 31 10 35 9 35 -7 0 -25 21
-24 80 6 27 14 57 25 67 24 11 0 13 -3 6 -6 -7 -2 -13 -11 -13 -19 0 -19 46
-18 101 2 24 8 56 13 70 10 18 -3 32 1 44 14 17 19 78 51 125 65 25 8 25 8 6
-14 -27 -30 -13 -37 51 -23 63 13 120 51 129 86 4 18 15 26 42 30 58 10 91 26
98 48 10 32 -4 34 -69 11 -132 -46 -139 -51 -132 -82 9 -41 -18 -48 -50 -14
-31 35 -22 46 61 73 76 26 86 37 42 45 -38 7 -103 -12 -190 -56 -32 -16 -68
-29 -80 -29 -22 1 -22 1 5 21 48 36 35 43 -65 34 -125 -11 -267 -12 -300 -1
-25 7 -28 5 -28 -13 0 -26 0 -26 -72 6 -41 18 -57 31 -54 40 3 8 54 88 113
179 89 136 110 163 126 158 10 -3 173 -49 360 -101z m-1191 55 c40 -16 75 -21
143 -22 50 -1 100 3 113 7 19 7 22 5 22 -18 0 -40 -22 -83 -90 -174 -166 -224
-270 -287 -432 -261 -39 6 -77 14 -84 18 -9 5 29 29 111 71 128 64 188 114
201 166 8 34 -4 95 -19 95 -18 0 -72 -35 -162 -105 -103 -80 -151 -104 -244
-121 -86 -15 -209 -18 -176 -4 11 5 33 9 48 9 45 1 147 39 218 81 66 39 176
143 245 233 20 26 40 47 45 47 5 0 32 -10 61 -22z m3158 -78 c0 -77 -4 -98
-25 -140 -18 -36 -25 -66 -26 -112 0 -35 -4 -81 -8 -103 -14 -74 -25 166 -14
298 11 119 21 147 54 147 17 0 19 -9 19 -90z m-2837 -43 c-4 -20 -8 -25 -14
-16 -4 7 -3 21 3 32 13 25 17 18 11 -16z m-1493 -22 c36 -9 130 -37 210 -61
80 -25 182 -54 227 -66 106 -26 99 -43 -13 -33 -91 7 -97 4 -68 -43 21 -36 50
-56 167 -119 63 -34 111 -53 132 -53 66 0 65 2 65 -151 0 -76 -4 -139 -8 -139
-37 0 -539 153 -794 242 l-148 52 -2 105 c-2 143 3 261 12 287 8 21 11 21 82
9 40 -7 102 -21 138 -30z m1504 -157 c24 -51 43 -95 40 -97 -14 -14 -72 84
-93 157 -18 62 9 32 53 -60z m53 42 c25 -50 42 -121 25 -105 -5 6 -23 43 -40
83 -33 79 -21 95 15 22z m-112 -92 c10 -24 25 -51 33 -61 16 -18 13 -30 -4
-19 -11 6 -64 105 -64 117 0 3 4 5 8 5 5 0 17 -19 27 -42z m-34 -60 c18 -36
25 -59 17 -56 -12 4 -66 101 -67 121 -2 21 22 -10 50 -65z m-50 -56 c13 -39 6
-51 -17 -31 -21 17 -44 71 -44 101 1 22 2 22 25 -7 14 -16 30 -45 36 -63z
m-76 -34 c4 -16 4 -32 1 -35 -8 -8 -46 59 -46 81 0 18 1 18 19 2 11 -10 23
-31 26 -48z m950 42 c-3 -5 -10 -10 -16 -10 -5 0 -9 5 -9 10 0 6 7 10 16 10 8
0 12 -4 9 -10z m1308 -253 l2 -218 -145 -49 c-166 -56 -203 -63 -208 -39 -7
37 59 64 97 40 10 -6 21 0 39 21 18 22 31 28 47 24 22 -6 22 -4 27 143 6 149
18 209 33 161 4 -12 4 -69 0 -125 -5 -81 -4 -109 9 -139 29 -71 39 -40 41 134
1 124 6 178 19 218 9 29 22 52 27 50 6 -2 11 -86 12 -221z m-2323 177 c0 -8
-4 -12 -10 -9 -5 3 -10 13 -10 21 0 8 5 12 10 9 6 -3 10 -13 10 -21z m-116
-26 c-9 -14 -24 2 -24 25 1 21 1 21 15 3 8 -10 12 -23 9 -28z m2506 -38 c7
-31 9 -73 5 -110 -6 -49 -4 -60 8 -60 22 0 33 -20 41 -68 6 -41 5 -43 -26 -57
l-33 -13 -6 75 c-17 201 -20 283 -11 283 6 0 15 -22 22 -50z m667 3 c-3 -10
-5 -2 -5 17 0 19 2 27 5 18 2 -10 2 -26 0 -35z m-3480 -67 c-4 -50 -11 -104
-17 -121 -8 -23 -9 -10 -5 55 3 47 5 104 5 128 0 30 4 41 11 36 8 -5 10 -34 6
-98z m1068 34 c139 -47 498 -154 608 -181 l47 -11 2 -102 c3 -177 -5 -309 -21
-335 -12 -19 -115 5 -361 84 -114 37 -239 70 -300 79 -167 27 -242 46 -291 77
-38 24 -68 32 -165 45 -75 10 -131 23 -151 35 -17 11 -73 28 -125 39 -51 11
-126 32 -165 46 -84 30 -82 24 -61 173 l11 84 86 -8 c47 -4 103 -7 124 -6 33
1 37 -1 37 -24 0 -28 25 -44 42 -27 8 8 17 -4 34 -43 31 -77 53 -110 66 -97 6
6 13 42 16 81 2 39 9 71 15 71 6 0 8 -28 4 -77 -4 -43 -3 -83 1 -88 20 -29 99
-75 127 -75 40 0 60 22 75 83 12 44 15 48 61 64 45 16 49 21 49 49 0 17 3 46
6 63 l7 32 27 -32 c32 -39 51 -32 43 16 -3 19 -4 35 -1 35 2 0 71 -23 153 -50z
m1493 -17 c-4 -34 -28 -43 -28 -10 0 25 7 37 22 37 5 0 8 -12 6 -27z m-74 -29
c8 -22 7 -23 -47 -30 -52 -7 -62 5 -25 30 29 21 64 20 72 0z m-150 -49 c4 -11
-3 -19 -20 -25 -32 -13 -34 -13 -34 3 0 32 43 49 54 22z m224 -11 c3 -24 -14
-74 -25 -74 -5 0 -6 23 -5 50 4 51 24 66 30 24z m-78 -23 c0 -8 -159 -66 -165
-60 -20 21 128 95 153 76 6 -5 12 -13 12 -16z m-2730 -66 c85 -26 157 -49 160
-51 2 -3 7 -55 10 -117 l5 -112 300 0 300 0 59 28 c57 26 61 27 105 13 25 -8
55 -16 66 -18 26 -4 -165 -78 -445 -172 -124 -41 -263 -88 -310 -105 -103 -37
-136 -38 -237 -7 -71 22 -970 265 -1070 289 -24 6 -43 13 -43 17 0 9 230 92
415 149 88 28 225 71 305 96 106 33 156 44 185 40 22 -2 110 -25 195 -50z
m230 -91 c0 -34 -4 -53 -10 -49 -5 3 -10 28 -10 56 0 27 5 49 10 49 6 0 10
-25 10 -56z m2160 37 c0 -20 -17 -37 -27 -28 -7 8 7 47 18 47 5 0 9 -9 9 -19z
m410 5 c0 -8 -4 -18 -10 -21 -5 -3 -10 3 -10 14 0 12 5 21 10 21 6 0 10 -6 10
-14z m-90 -41 c-16 -19 -60 -20 -60 -1 0 17 51 37 64 25 5 -5 4 -14 -4 -24z
m-413 3 c-3 -8 -6 -5 -6 6 -1 11 2 17 5 13 3 -3 4 -12 1 -19z m-1715 -59 c101
-27 194 -49 208 -50 l25 0 -25 -11 c-16 -7 -77 -10 -165 -8 -77 2 -179 4 -228
4 l-87 1 0 64 0 63 45 -6 c24 -4 127 -29 227 -57z m1658 36 c0 -8 -4 -15 -10
-15 -5 0 -10 7 -10 15 0 8 5 15 10 15 6 0 10 -7 10 -15z m219 -2 c-8 -9 -10
-18 -4 -20 27 -9 33 -23 39 -85 7 -66 7 -68 -19 -80 -33 -15 -45 -1 -45 55 0
31 -3 38 -17 35 -14 -2 -19 -16 -23 -63 l-5 -59 -70 -23 c-99 -31 -103 -31
-110 21 -7 47 0 112 15 136 7 10 10 -4 10 -45 0 -67 10 -91 34 -82 12 5 16 20
16 59 0 75 16 94 25 29 12 -90 40 -73 52 34 l8 67 45 18 c58 23 65 24 49 3z
m-290 -40 c0 -10 -4 -27 -9 -38 -7 -16 -9 -13 -9 18 -1 20 4 37 9 37 6 0 10
-8 9 -17z m421 -73 c0 -6 -10 -20 -22 -32 -21 -21 -23 -21 -26 -5 -2 10 -1 30
2 43 6 21 9 23 26 14 11 -6 20 -15 20 -20z m-498 -128 c2 -28 0 -52 -4 -52 -5
0 -7 33 -7 73 2 76 6 68 11 -21z m-3139 42 c78 -19 198 -51 267 -71 293 -82
593 -162 705 -188 66 -15 138 -32 159 -37 l39 -10 -6 -255 c-4 -141 -8 -257
-10 -259 -5 -6 -334 82 -507 136 -91 28 -277 86 -415 130 -137 43 -282 88
-321 100 -44 12 -74 27 -78 37 -4 9 -6 115 -6 235 1 185 4 218 16 218 8 0 79
-16 157 -36z m2001 -288 c-10 -8 -21 -12 -24 -10 -5 6 21 24 34 24 6 0 1 -6
-10 -14z m-284 -105 c0 -5 -9 -11 -20 -14 -20 -5 -26 3 -13 16 9 10 33 8 33
-2z m-103 -53 c-3 -8 -6 -5 -6 6 -1 11 2 17 5 13 3 -3 4 -12 1 -19z m-67 -2
c0 -2 -15 -22 -34 -45 -26 -31 -35 -37 -40 -25 -12 31 -6 54 13 54 11 0 23 5
26 10 6 10 35 14 35 6z m-2520 -53 c0 -22 -2 -25 -10 -13 -13 20 -13 40 0 40
6 0 10 -12 10 -27z m-100 -19 c13 -33 13 -34 -4 -34 -8 0 -18 9 -21 21 -6 19
-8 19 -28 5 -80 -58 -219 -106 -308 -106 -32 0 -56 -8 -88 -30 -48 -33 -101
-39 -121 -15 -7 9 -11 17 -9 19 2 2 90 27 194 56 180 49 322 94 333 105 14 14
43 2 52 -21z m1148 -48 c136 -41 369 -111 518 -155 231 -69 361 -111 532 -171
l32 -12 0 -229 c0 -126 -3 -229 -6 -229 -31 0 -1292 405 -1326 426 -9 6 -11
444 -3 444 3 0 117 -33 253 -74z m-1138 -23 c0 -11 -57 -42 -64 -35 -12 11 -5
21 22 30 34 13 42 14 42 5z m2396 -59 c-7 -26 -36 -33 -36 -9 0 9 8 28 17 42
15 23 18 24 21 9 2 -10 1 -28 -2 -42z m-2544 -4 c-26 -24 -41 -30 -79 -30 -36
0 -53 -6 -73 -25 -15 -14 -41 -30 -59 -35 -32 -9 -32 -8 -29 22 3 30 6 32 113
64 61 18 121 33 135 33 25 0 25 0 -8 -29z m2798 -35 c-7 -9 -15 -13 -18 -10
-3 2 1 11 8 20 7 9 15 13 18 10 3 -2 -1 -11 -8 -20z m-83 -27 c-3 -7 -5 -2 -5
12 0 14 2 19 5 13 2 -7 2 -19 0 -25z m-97 -13 c0 -13 -5 -27 -11 -30 -15 -10
-17 -4 -12 32 6 37 23 35 23 -2z m-173 -42 c-3 -10 -5 -2 -5 17 0 19 2 27 5
18 2 -10 2 -26 0 -35z m-2763 21 c10 -27 7 -33 -27 -48 -75 -31 -77 -31 -77 8
0 40 18 55 66 56 20 0 34 -6 38 -16z m176 -23 c0 -16 -24 -29 -62 -33 -47 -5
-48 4 -5 26 35 17 67 21 67 7z m2936 -123 c-11 -174 -25 -183 -26 -15 0 120 2
137 16 137 15 0 16 -13 10 -122z m-2776 92 c0 -8 -51 -40 -65 -40 -13 0 -3 30
13 39 22 13 52 14 52 1z m2700 -163 c0 -195 -16 -202 -26 -11 -7 132 -2 190
16 179 6 -4 10 -74 10 -168z m-128 -84 c-4 -298 -9 -306 -11 -20 0 130 3 237
7 237 4 0 6 -98 4 -217z m-2422 148 c0 -15 -56 -61 -76 -61 -2 0 -4 14 -4 30
0 22 6 33 23 40 37 15 57 12 57 -9z m-4 -117 c-6 -15 -51 -20 -60 -5 -6 9 21
36 44 43 16 5 25 -15 16 -38z m2361 -41 c-2 -16 -4 -3 -4 27 0 30 2 43 4 28 2
-16 2 -40 0 -55z m120 -110 c-2 -37 -3 -9 -3 62 0 72 1 102 3 68 2 -34 2 -93
0 -130z m-1167 28 c494 -162 636 -208 778 -251 l104 -32 -7 -207 c-4 -113 -8
-212 -11 -220 -7 -20 -82 -6 -204 40 -58 22 -190 62 -294 90 -205 54 -415 128
-621 219 -197 87 -206 92 -200 109 4 9 6 100 6 204 0 139 3 187 12 187 7 0
203 -63 437 -139z m1294 -25 c7 -62 -10 -127 -24 -91 -9 24 -1 145 10 145 4 0
10 -24 14 -54z m-284 -121 c0 -63 -15 -73 -24 -17 -4 20 -9 45 -12 55 -4 12 0
17 15 17 19 0 21 -6 21 -55z m277 -152 c-4 -58 -8 -140 -8 -182 -2 -138 -17
-27 -18 137 -1 135 1 152 16 152 14 0 15 -12 10 -107z m-138 -123 c-1 -108 2
-174 10 -187 6 -12 11 -24 11 -27 0 -12 -123 -67 -165 -75 -44 -8 -45 -8 -45
18 0 14 7 35 15 45 12 16 15 56 15 188 0 105 4 168 10 168 6 0 10 -47 11 -117
2 -210 4 -236 16 -240 22 -8 36 76 30 186 -6 103 4 193 23 216 8 10 18 10 40
2 l30 -11 -1 -166z m64 42 c0 -77 -5 -148 -10 -157 -6 -10 -9 44 -9 145 1 102
5 159 11 157 6 -3 9 -58 8 -145z m-1226 -324 c-2 -13 -4 -3 -4 22 0 25 2 35 4
23 2 -13 2 -33 0 -45z m-67 -32 c0 -14 -4 -28 -10 -31 -6 -4 -10 7 -10 24 0
17 5 31 10 31 6 0 10 -11 10 -24z m-80 4 c0 -5 -2 -10 -4 -10 -3 0 -8 5 -11
10 -3 6 -1 10 4 10 6 0 11 -4 11 -10z"/>
<path d="M1776 6933 c17 -74 47 -111 102 -128 23 -7 22 -5 -9 52 -48 87 -107
136 -93 76z"/>
<path d="M1660 6927 c0 -7 7 -34 16 -59 14 -41 19 -47 60 -58 24 -7 47 -10 50
-7 11 10 -26 66 -68 101 -45 39 -58 44 -58 23z"/>
<path d="M5533 3733 c-7 -2 -13 -16 -13 -29 0 -19 5 -24 26 -24 22 0 25 4 22
27 -3 27 -14 35 -35 26z"/>
<path d="M5436 3523 c-14 -15 -4 -71 22 -114 15 -26 41 -70 57 -98 17 -28 36
-51 43 -51 18 0 26 28 14 43 -6 7 -30 51 -53 97 -45 92 -73 133 -83 123z"/>
<path d="M5376 3412 c-13 -41 43 -156 94 -192 l30 -22 -20 51 c-27 69 -77 168
-89 175 -5 4 -12 -2 -15 -12z"/>
<path d="M4850 3405 c0 -8 8 -21 18 -29 9 -8 60 -50 112 -93 150 -126 178
-139 144 -68 -18 38 -54 71 -167 155 -68 50 -107 63 -107 35z"/>
<path d="M5340 3265 c0 -2 14 -34 32 -70 28 -60 70 -106 84 -92 9 9 -57 136
-79 152 -21 15 -37 19 -37 10z"/>
<path d="M5315 3073 c36 -85 72 -113 62 -47 -6 39 -41 84 -64 84 -11 0 -10 -7
2 -37z"/>
<path d="M5244 3018 c8 -40 49 -94 86 -113 l29 -15 -11 33 c-23 66 -73 127
-104 127 -3 0 -4 -14 0 -32z"/>
<path d="M4516 451 c-19 -81 -21 -194 -5 -240 25 -73 39 -17 38 151 -1 64 2
121 5 126 3 5 -1 15 -8 21 -12 10 -17 0 -30 -58z"/>
<path d="M9490 11046 c0 -17 26 -39 40 -34 6 2 4 12 -5 26 -18 25 -35 29 -35
8z"/>
<path d="M8520 10442 c0 -15 11 -21 27 -15 12 5 12 7 1 14 -17 11 -28 11 -28
1z"/>
<path d="M8245 10031 c-6 -21 -11 -23 -179 -81 -66 -22 -153 -44 -196 -49 -66
-7 -83 -13 -126 -46 -27 -20 -50 -41 -52 -46 -2 -5 19 -9 47 -9 28 0 51 5 51
10 0 6 9 19 20 30 16 16 33 20 91 20 77 0 165 26 297 86 70 32 72 34 72 68 0
38 -15 48 -25 17z"/>
<path d="M7371 9759 c-14 -6 -21 -13 -15 -18 16 -15 206 -82 274 -97 85 -18
253 -19 248 -1 -9 26 -52 37 -123 31 -82 -7 -125 3 -246 57 -92 41 -100 43
-138 28z"/>
<path d="M7566 9504 c-45 -12 -96 -47 -96 -66 0 -13 47 -9 85 6 29 13 74 61
64 70 -2 2 -26 -3 -53 -10z"/>
<path d="M6909 9244 c-13 -15 -68 -60 -121 -100 -91 -70 -160 -145 -139 -152
15 -5 72 27 126 72 28 23 74 59 102 80 56 40 93 84 93 110 0 25 -34 19 -61
-10z"/>
<path d="M7216 9019 c-36 -28 -33 -36 12 -31 41 5 62 17 62 38 0 21 -44 17
-74 -7z"/>
<path d="M4577 9002 c-25 -28 -22 -52 7 -52 25 0 56 32 56 57 0 19 -45 16 -63
-5z"/>
<path d="M7125 9003 c-41 -10 -41 -43 -1 -43 27 0 51 24 41 40 -7 11 -8 11
-40 3z"/>
<path d="M7009 8944 c-10 -13 -10 -17 1 -24 18 -11 50 6 50 25 0 20 -34 19
-51 -1z"/>
<path d="M4500 8934 c-11 -12 -11 -18 2 -31 20 -20 38 -9 38 23 0 27 -21 32
-40 8z"/>
<path d="M6489 8931 c-20 -16 -22 -22 -11 -33 10 -10 18 -10 40 2 33 19 42 50
14 50 -11 0 -30 -9 -43 -19z"/>
<path d="M6947 8883 c-13 -12 -7 -43 7 -43 19 0 48 29 41 41 -7 10 -39 12 -48
2z"/>
<path d="M6825 8774 c-72 -55 -150 -132 -143 -140 9 -8 91 26 124 51 53 40
125 148 97 144 -5 0 -39 -25 -78 -55z"/>
<path d="M3735 8755 c-32 -32 -34 -68 -3 -63 24 3 71 64 62 79 -10 16 -34 9
-59 -16z"/>
<path d="M6122 8664 c-30 -20 -28 -44 2 -44 24 0 56 23 56 40 0 4 -7 11 -16
14 -20 8 -16 9 -42 -10z"/>
<path d="M3350 8628 c-11 -24 -35 -72 -55 -107 -19 -35 -35 -77 -35 -93 0 -25
2 -28 20 -18 25 13 62 77 93 160 13 36 28 73 32 83 5 13 2 17 -14 17 -16 0
-27 -12 -41 -42z"/>
<path d="M3957 8644 c-10 -11 3 -24 22 -24 10 0 24 7 31 15 11 13 8 15 -17 15
-16 0 -33 -3 -36 -6z"/>
<path d="M3835 8596 c-19 -14 -19 -15 -1 -22 20 -8 52 7 49 22 -3 15 -27 15
-48 0z"/>
<path d="M5960 8565 c0 -9 9 -15 25 -15 16 0 25 6 25 15 0 9 -9 15 -25 15 -16
0 -25 -6 -25 -15z"/>
<path d="M4633 8534 c-10 -28 13 -39 43 -19 21 13 24 19 13 26 -22 14 -49 10
-56 -7z"/>
<path d="M4538 8523 c-10 -3 -18 -13 -18 -24 0 -23 9 -24 36 -5 22 17 10 35
-18 29z"/>
<path d="M3496 8453 c-42 -54 -47 -76 -13 -64 26 9 81 86 72 101 -11 18 -22
11 -59 -37z"/>
<path d="M5549 8484 c-10 -13 -10 -17 2 -25 8 -5 19 -9 25 -9 17 0 37 27 29
40 -9 15 -41 12 -56 -6z"/>
<path d="M5380 8465 c-17 -20 -7 -28 31 -27 35 1 55 15 45 31 -10 16 -62 13
-76 -4z"/>
<path d="M5242 8453 c-35 -7 -24 -37 14 -41 27 -3 65 21 53 32 -9 8 -46 13
-67 9z"/>
<path d="M5743 8398 c-12 -6 -27 -24 -32 -41 -14 -39 -15 -37 17 -37 23 0 30
6 40 33 21 57 16 65 -25 45z"/>
<path d="M3993 8390 c-23 -5 -52 -15 -65 -22 -22 -13 -22 -13 15 -16 41 -3
142 22 152 38 7 12 -41 11 -102 0z"/>
<path d="M3200 8365 c0 -21 30 -31 41 -14 14 23 11 29 -16 29 -16 0 -25 -6
-25 -15z"/>
<path d="M3812 8348 c5 -15 48 -24 48 -10 0 10 -23 22 -42 22 -5 0 -8 -6 -6
-12z"/>
<path d="M1532 8228 c3 -7 24 -14 49 -16 41 -2 43 -1 25 13 -24 19 -79 20 -74
3z"/>
<path d="M1630 8210 c0 -15 89 -104 97 -97 12 12 -29 84 -53 96 -31 14 -44 14
-44 1z"/>
<path d="M2327 8213 c-13 -12 -7 -62 9 -77 20 -21 34 -12 34 23 0 28 -31 67
-43 54z"/>
<path d="M1345 8130 c-27 -52 -27 -53 -8 -78 27 -37 43 -39 43 -6 0 14 5 44
12 66 10 33 9 41 -4 55 -15 14 -19 11 -43 -37z"/>
<path d="M1477 8123 c-10 -22 2 -39 37 -51 34 -11 42 -10 54 2 13 13 11 17
-19 35 -35 21 -65 27 -72 14z"/>
<path d="M1600 8100 c0 -13 38 -32 50 -25 22 14 10 35 -20 35 -16 0 -30 -4
-30 -10z"/>
<path d="M3981 8028 c-79 -19 -83 -22 -65 -35 39 -30 285 6 288 42 2 19 -136
15 -223 -7z"/>
<path d="M1430 8010 c0 -20 33 -40 66 -40 22 0 17 27 -8 44 -32 22 -58 20 -58
-4z"/>
<path d="M1567 7993 c-29 -3 -37 -8 -35 -21 2 -13 14 -17 48 -17 38 0 45 3 45
19 0 22 -6 24 -58 19z"/>
<path d="M2570 7970 c0 -19 9 -40 25 -55 28 -28 61 -34 51 -9 -3 9 -6 19 -6
24 0 12 -50 70 -61 70 -5 0 -9 -14 -9 -30z"/>
<path d="M3782 7993 c-7 -2 -17 -13 -22 -24 -10 -17 -7 -19 29 -19 40 0 77 23
66 41 -6 9 -51 11 -73 2z"/>
<path d="M2819 7950 c-19 -13 0 -44 30 -48 16 -3 21 2 21 17 0 25 -30 43 -51
31z"/>
<path d="M2690 7929 c0 -43 86 -99 112 -73 7 7 -70 78 -94 87 -14 5 -18 1 -18
-14z"/>
<path d="M3677 7943 c-12 -11 -8 -23 7 -23 7 0 19 7 26 15 10 12 9 15 -7 15
-11 0 -23 -3 -26 -7z"/>
<path d="M3583 7915 c-17 -13 -16 -14 9 -24 30 -11 61 -5 55 12 -6 19 -44 26
-64 12z"/>
<path d="M3515 7895 c-5 -2 -22 -6 -37 -9 -37 -8 -37 -36 0 -36 35 0 71 25 57
38 -5 5 -14 8 -20 7z"/>
<path d="M3306 7879 c-41 -10 -66 -25 -66 -40 0 -5 33 -9 74 -9 54 0 77 4 86
15 25 30 -29 49 -94 34z"/>
<path d="M1410 7775 c-7 -8 -24 -15 -38 -15 -31 0 -84 -54 -118 -122 -32 -63
-66 -213 -54 -242 25 -65 124 -120 220 -120 104 -1 133 20 181 126 63 141 72
225 32 301 -30 58 -191 110 -223 72z m113 -98 l24 -15 -23 -89 c-12 -48 -25
-110 -29 -137 -7 -43 -6 -48 11 -44 10 2 29 23 42 46 13 24 26 41 29 39 5 -6
-20 -57 -55 -109 -22 -34 -29 -38 -67 -38 -64 0 -143 28 -182 64 l-36 33 16
69 c8 38 25 95 37 126 18 48 27 59 53 68 44 13 152 6 180 -13z"/>
<path d="M9129 4177 c-19 -12 -32 -27 -29 -32 6 -12 46 -10 83 4 24 9 26 14
17 31 -14 26 -29 25 -71 -3z"/>
<path d="M8512 4015 c-51 -18 -103 -42 -115 -55 l-22 -22 40 6 c52 9 215 66
215 76 0 26 -31 24 -118 -5z"/>
<path d="M8225 3915 c-90 -23 -183 -58 -240 -87 l-30 -16 26 -7 c19 -5 47 2
90 20 35 14 102 37 147 49 47 13 93 33 105 45 27 27 17 27 -98 -4z"/>
<path d="M9310 3846 c-47 -18 -164 -68 -260 -111 -215 -95 -240 -104 -313
-115 -35 -5 -77 -20 -105 -38 -49 -30 -64 -35 -245 -77 -59 -13 -124 -34 -145
-45 l-37 -21 35 7 c102 17 306 73 465 126 283 95 745 283 745 304 0 13 -66 -1
-140 -30z"/>
<path d="M9525 3770 c-58 -50 -86 -60 -206 -75 -31 -4 -68 -20 -114 -50 -63
-42 -86 -50 -125 -47 -8 1 -42 -12 -75 -28 -33 -16 -127 -48 -209 -70 -140
-38 -214 -66 -203 -76 5 -6 56 6 172 40 50 15 114 27 144 27 38 1 63 7 88 24
20 14 57 26 91 31 71 8 118 27 157 63 53 48 62 52 149 61 63 6 94 15 114 30
15 12 48 35 75 51 31 19 47 35 47 49 0 36 -44 24 -105 -30z"/>
<path d="M8585 3756 c-77 -29 -196 -77 -265 -106 -242 -102 -566 -228 -660
-258 -52 -16 -152 -42 -223 -57 -70 -14 -176 -40 -235 -56 -59 -17 -139 -34
-179 -39 -55 -6 -89 -17 -145 -47 -40 -22 -108 -52 -150 -67 -88 -32 -119 -56
-71 -56 36 0 112 26 215 74 85 39 178 66 227 66 16 0 52 8 78 19 48 18 103 33
347 92 71 17 164 44 205 61 42 16 130 47 196 69 66 21 143 53 170 70 66 42 97
55 242 99 74 23 133 47 152 63 17 14 52 33 78 42 101 37 204 89 166 84 -5 0
-71 -25 -148 -53z"/>
<path d="M8101 3759 c-47 -19 -97 -31 -135 -33 -34 -2 -74 -9 -90 -15 -16 -6
-88 -25 -160 -41 -177 -40 -190 -44 -356 -110 -80 -31 -203 -76 -275 -100 -71
-23 -179 -63 -239 -87 -145 -59 -504 -180 -560 -188 -47 -7 -106 -38 -106 -56
0 -5 8 -8 18 -5 9 3 125 34 257 70 268 73 335 96 465 161 49 25 140 59 201 75
62 17 182 58 268 92 147 57 232 81 561 157 153 36 245 70 245 90 0 23 -16 21
-94 -10z"/>
<path d="M6385 3570 c-60 -16 -202 -58 -315 -94 -113 -36 -216 -66 -230 -66
-35 0 -77 -29 -59 -41 22 -14 60 -10 116 11 29 11 123 37 210 59 334 85 403
110 403 148 0 17 4 17 -125 -17z"/>
<path d="M9720 3425 c-13 -39 4 -90 30 -90 19 0 26 75 10 105 -15 29 -27 25
-40 -15z"/>
<path d="M9588 3428 c-7 -13 -13 -57 -13 -104 0 -67 4 -86 19 -103 39 -42 46
-29 46 85 0 131 -20 178 -52 122z"/>
<path d="M8075 3425 c-16 -7 -97 -27 -180 -45 -82 -18 -172 -40 -198 -50 -52
-20 -101 -49 -94 -56 8 -8 304 55 383 82 15 5 14 3 -3 -10 -13 -10 -23 -26
-23 -36 0 -16 4 -17 32 -9 18 5 41 18 53 29 l20 21 -22 5 c-19 5 -15 10 29 33
76 38 78 69 3 36z"/>
<path d="M8540 3410 c0 -5 4 -10 9 -10 6 0 13 5 16 10 3 6 -1 10 -9 10 -9 0
-16 -4 -16 -10z"/>
<path d="M9441 3396 c-14 -15 -20 -29 -15 -37 4 -7 11 -85 14 -174 6 -155 19
-220 41 -198 19 19 31 130 25 233 -13 209 -19 225 -65 176z"/>
<path d="M9172 3207 c-12 -14 -42 -227 -42 -297 0 -53 16 -116 32 -126 24 -15
37 28 36 120 0 50 4 111 10 136 6 25 14 75 17 113 7 67 7 67 -18 67 -13 0 -29
-6 -35 -13z"/>
<path d="M8234 3143 c-9 -34 14 -77 44 -81 25 -4 29 18 11 65 -18 48 -45 56
-55 16z"/>
<path d="M9990 3131 c0 -61 29 -81 63 -43 35 39 17 72 -39 72 -20 0 -24 -5
-24 -29z"/>
<path d="M9630 2971 c0 -87 -3 -178 -6 -202 -5 -35 -2 -49 14 -69 11 -14 23
-22 27 -19 10 11 19 308 11 382 -7 57 -10 67 -27 67 -18 0 -19 -9 -19 -159z"/>
<path d="M3284 3089 c-3 -6 -2 -15 4 -21 11 -11 52 6 52 22 0 14 -47 13 -56
-1z"/>
<path d="M3191 3076 c-32 -11 -33 -13 -17 -29 10 -9 23 -17 31 -17 21 0 59 36
51 48 -9 15 -21 14 -65 -2z"/>
<path d="M9753 3074 c-3 -9 -3 -61 1 -117 3 -56 9 -169 13 -250 5 -121 9 -153
24 -170 9 -12 21 -18 25 -14 4 4 2 110 -4 235 -7 125 -12 248 -12 273 0 34 -4
49 -16 53 -22 8 -24 8 -31 -10z"/>
<path d="M2962 3072 c-13 -2 -28 -15 -35 -29 -10 -21 -8 -27 8 -40 44 -32 113
-28 159 8 34 27 33 35 -6 42 -18 4 -49 10 -68 15 -19 4 -45 6 -58 4z"/>
<path d="M8315 3041 c-11 -18 23 -269 43 -314 20 -46 41 -68 43 -45 5 63 4
228 -2 228 -7 0 -21 35 -38 98 -11 39 -32 55 -46 33z"/>
<path d="M9940 3015 c-9 -11 -11 -42 -5 -126 4 -71 2 -154 -6 -228 -11 -105
-10 -119 5 -148 9 -18 21 -33 27 -33 18 0 28 48 20 106 -5 31 -4 119 1 193 12
191 -4 282 -42 236z"/>
<path d="M8627 3013 c-10 -16 -29 -318 -25 -377 3 -34 13 -77 23 -96 l18 -35
9 30 c11 40 23 424 14 458 -6 25 -29 36 -39 20z"/>
<path d="M2813 2990 c-28 -12 -31 -50 -4 -50 24 0 81 20 81 29 0 13 -24 31
-39 30 -9 0 -26 -4 -38 -9z"/>
<path d="M8179 2965 c-19 -47 -17 -137 5 -169 26 -40 37 -22 43 70 5 69 3 82
-15 104 l-20 25 -13 -30z"/>
<path d="M2647 2947 c-29 -12 -31 -24 -5 -41 23 -14 68 8 68 34 0 22 -18 24
-63 7z"/>
<path d="M8730 2595 c0 -305 -2 -355 -15 -355 -20 0 -35 -32 -35 -73 0 -36 23
-67 35 -47 3 5 17 10 30 10 21 0 25 6 32 48 10 59 9 521 -1 665 -7 96 -10 107
-27 107 -18 0 -19 -13 -19 -355z"/>
<path d="M9386 2903 c-10 -64 -7 -138 8 -158 13 -18 15 -17 25 20 17 62 14
162 -5 169 -9 3 -17 6 -19 6 -1 0 -5 -17 -9 -37z"/>
<path d="M9510 2915 c-19 -49 -10 -115 15 -115 17 0 25 23 25 75 0 55 -25 80
-40 40z"/>
<path d="M9260 2901 c-14 -26 -12 -83 4 -160 9 -45 10 -76 4 -105 -17 -74 -14
-180 5 -210 42 -63 51 -23 51 219 1 196 -11 275 -39 275 -8 0 -19 -9 -25 -19z"/>
<path d="M2382 2879 c-34 -10 -51 -34 -36 -49 5 -5 27 -5 52 2 35 9 42 15 40
31 -4 25 -14 28 -56 16z"/>
<path d="M2214 2840 c-12 -4 -24 -15 -27 -23 -3 -9 -25 -16 -62 -19 -44 -4
-62 -11 -83 -31 -23 -24 -24 -27 -8 -33 23 -9 87 11 121 38 20 15 39 21 65 19
26 -1 41 3 54 18 18 20 18 21 -8 31 -15 5 -28 10 -29 9 -1 0 -11 -4 -23 -9z"/>
<path d="M8971 2813 c-14 -49 -14 -70 1 -79 19 -12 39 28 36 70 -4 52 -24 57
-37 9z"/>
<path d="M1602 2815 c-40 -14 -104 -41 -142 -60 -96 -48 -197 -80 -315 -100
-143 -24 -188 -34 -205 -49 -8 -8 -39 -21 -67 -30 -51 -17 -110 -55 -86 -56 7
0 32 7 55 15 24 7 133 36 243 63 154 38 240 66 373 121 95 39 184 71 198 71
33 0 64 17 64 35 0 21 -34 18 -118 -10z"/>
<path d="M8117 2823 c-4 -3 -7 -33 -7 -65 0 -54 1 -58 24 -58 20 0 25 6 30 45
4 26 3 53 -4 65 -11 20 -31 26 -43 13z"/>
<path d="M9075 2810 c-3 -5 -10 -80 -14 -167 -8 -152 -8 -159 12 -174 19 -15
20 -24 15 -128 -5 -95 -3 -115 11 -132 16 -20 18 -20 31 -4 11 13 16 52 18
141 4 122 4 123 -22 139 l-26 17 0 159 c0 145 -6 180 -25 149z"/>
<path d="M8865 2780 c-12 -20 -24 -194 -25 -350 0 -85 -5 -186 -10 -225 -12
-78 -1 -120 32 -131 11 -3 21 -4 23 -2 1 1 8 128 15 280 12 293 7 438 -16 438
-7 0 -16 -5 -19 -10z"/>
<path d="M3190 2756 c0 -8 5 -18 11 -21 16 -10 56 3 63 20 4 12 -3 15 -34 15
-28 0 -40 -4 -40 -14z"/>
<path d="M1837 2710 c-58 -10 -115 -39 -135 -68 l-14 -21 74 20 c79 23 129 47
136 67 2 6 0 11 -5 11 -4 -1 -30 -5 -56 -9z"/>
<path d="M9555 2689 c-11 -35 4 -88 31 -105 13 -9 27 -14 31 -10 8 8 8 52 -1
99 -6 30 -11 37 -31 37 -15 0 -26 -7 -30 -21z"/>
<path d="M2865 2685 c-5 -2 -78 -22 -162 -44 -164 -44 -304 -92 -286 -98 36
-12 340 60 413 97 51 26 77 59 35 45z"/>
<path d="M8300 2666 c-19 -52 -32 -153 -25 -213 4 -35 10 -63 14 -63 20 0 35
65 39 178 3 88 1 122 -7 122 -6 0 -16 -11 -21 -24z"/>
<path d="M9437 2658 c-24 -19 -37 -62 -37 -123 0 -60 25 -135 45 -135 30 0 44
235 17 262 -5 5 -16 2 -25 -4z"/>
<path d="M8066 2618 c-8 -39 -16 -195 -18 -355 -1 -147 5 -183 32 -183 18 0
28 102 32 320 l3 235 -22 3 c-17 2 -24 -3 -27 -20z"/>
<path d="M8192 2568 c-9 -9 -12 -81 -12 -277 0 -233 2 -270 18 -300 9 -19 22
-36 28 -38 18 -6 25 180 16 417 -6 171 -9 205 -22 208 -9 1 -21 -3 -28 -10z"/>
<path d="M8463 2560 c-28 -44 -33 -102 -17 -210 12 -76 14 -137 9 -222 -7
-126 4 -176 43 -197 19 -10 21 -7 27 39 8 55 5 91 -26 337 -12 90 -19 187 -17
218 3 59 0 66 -19 35z"/>
<path d="M714 2528 c-12 -19 -89 -46 -178 -63 -84 -15 -174 -50 -162 -62 7 -8
234 36 281 55 45 18 105 54 105 63 0 12 -40 17 -46 7z"/>
<path d="M2770 2522 c-46 -3 -74 -18 -64 -33 10 -16 71 -9 95 10 30 24 26 27
-31 23z"/>
<path d="M9621 2499 c-28 -80 -7 -158 47 -174 21 -6 22 -4 22 70 0 114 -43
179 -69 104z"/>
<path d="M3155 2478 c-82 -35 -205 -68 -250 -68 -18 0 -90 -25 -161 -54 -113
-48 -623 -206 -664 -206 -17 0 -40 -19 -40 -33 0 -22 151 14 322 78 65 24 156
53 204 65 48 11 130 38 184 59 57 24 123 42 161 46 41 5 95 21 149 45 47 21
106 41 133 45 28 4 58 16 75 30 l27 24 -35 0 c-19 -1 -66 -15 -105 -31z"/>
<path d="M2195 2493 c-41 -9 -275 -86 -395 -130 -134 -49 -380 -161 -380 -174
0 -8 95 12 155 34 22 8 94 38 160 67 177 78 319 128 394 141 68 11 151 44 151
60 0 9 -49 10 -85 2z"/>
<path d="M1210 2440 c-52 -26 -217 -98 -366 -158 -328 -134 -402 -170 -468
-231 -28 -26 -78 -69 -111 -95 -67 -54 -104 -95 -130 -145 -17 -33 -17 -35 1
-48 55 -40 245 -85 280 -65 18 10 17 11 -6 20 -14 5 -58 15 -98 22 -51 8 -81
19 -100 36 l-27 24 95 93 c155 151 311 244 619 367 195 77 390 166 413 187 21
19 24 43 6 42 -7 0 -56 -22 -108 -49z"/>
<path d="M8584 2454 c-4 -14 -3 -44 1 -67 4 -23 10 -103 14 -177 6 -130 12
-160 31 -160 20 0 22 80 6 217 -9 79 -14 159 -10 178 5 31 4 35 -15 35 -14 0
-23 -8 -27 -26z"/>
<path d="M2479 2451 c-13 -11 -21 -22 -18 -25 12 -12 121 7 142 25 22 18 21
18 -39 19 -46 0 -68 -5 -85 -19z"/>
<path d="M8343 2353 c-26 -138 -25 -324 2 -377 42 -83 45 -66 44 213 -1 205
-4 261 -14 261 -9 0 -20 -34 -32 -97z"/>
<path d="M7687 2313 c-21 -108 -21 -163 -3 -208 17 -40 32 -45 39 -12 9 37 0
301 -10 304 -5 2 -17 -36 -26 -84z"/>
<path d="M7502 2338 c2 -35 7 -43 23 -43 13 0 21 8 23 22 4 28 -14 63 -34 63
-12 0 -14 -10 -12 -42z"/>
<path d="M2035 2289 c-248 -65 -351 -113 -399 -186 -14 -21 -27 -53 -28 -72
-3 -29 2 -38 31 -58 40 -27 114 -33 105 -8 -3 8 -24 20 -45 27 -59 17 -66 32
-35 72 49 65 123 105 311 165 135 44 223 79 231 93 8 13 -12 9 -171 -33z"/>
<path d="M2975 2205 c-49 -12 -110 -32 -135 -43 -25 -11 -110 -32 -190 -46
-81 -14 -197 -43 -263 -66 -93 -31 -133 -40 -187 -40 -53 0 -73 -4 -91 -20
l-24 -19 40 -1 c22 0 81 7 130 15 88 14 148 29 385 94 63 18 150 37 193 42 43
5 97 17 118 26 29 11 43 13 51 5 8 -8 17 -5 33 12 12 14 40 27 63 31 22 3 48
13 59 20 16 13 12 14 -37 14 -30 -1 -95 -11 -145 -24z"/>
<path d="M1260 2133 c-68 -10 -125 -29 -240 -78 -69 -30 -138 -57 -155 -61
-16 -4 -42 -19 -56 -33 -14 -14 -45 -41 -67 -59 -23 -18 -42 -40 -42 -48 0 -8
17 -22 38 -31 31 -13 48 -14 112 -4 41 6 121 11 176 11 85 0 106 3 125 19 13
11 21 22 18 25 -3 3 -54 -3 -114 -14 -129 -24 -213 -25 -260 -6 -19 8 -35 17
-35 20 0 9 168 105 228 130 31 13 85 33 120 45 84 27 182 72 182 82 0 5 -1 8
-2 8 -2 -1 -14 -3 -28 -6z"/>
<path d="M7805 2130 c-11 -18 -18 -116 -11 -162 4 -24 16 -59 28 -78 l22 -35
7 25 c11 39 10 147 -2 195 -12 48 -33 74 -44 55z"/>
<path d="M7926 2094 c-16 -117 -2 -284 24 -284 18 0 30 69 29 164 -2 121 -9
160 -30 164 -12 2 -18 -8 -23 -44z"/>
<path d="M2420 1996 c-125 -65 -519 -182 -780 -232 -74 -14 -150 -35 -170 -45
l-35 -20 80 6 c105 8 222 34 425 94 91 27 212 62 270 77 121 31 234 81 269
118 22 24 23 26 5 26 -10 -1 -39 -11 -64 -24z"/>
<path d="M8047 2014 c-11 -11 -8 -103 3 -125 6 -10 17 -19 26 -19 22 0 16 143
-6 148 -9 1 -19 0 -23 -4z"/>
<path d="M1960 1970 c-13 -8 -13 -11 -1 -19 17 -11 74 7 65 20 -7 12 -45 11
-64 -1z"/>
<path d="M2715 1919 c-132 -59 -286 -109 -336 -109 -26 0 -67 -11 -99 -26 -30
-14 -84 -29 -121 -33 -37 -5 -147 -36 -246 -69 -98 -34 -234 -75 -303 -93
-115 -29 -208 -64 -198 -75 6 -5 163 22 243 42 33 8 157 46 275 84 272 86 325
102 485 140 169 40 374 108 403 133 26 24 29 47 5 46 -10 0 -58 -18 -108 -40z"/>
<path d="M7465 1942 c-3 -3 30 -40 73 -82 44 -41 96 -101 116 -132 20 -32 43
-58 51 -58 20 0 20 1 -16 72 -50 99 -195 229 -224 200z"/>
<path d="M7216 1922 c-9 -15 26 -54 61 -69 43 -18 49 -13 29 24 -19 38 -77 66
-90 45z"/>
<path d="M7060 1777 c0 -14 19 -41 50 -72 39 -39 53 -62 70 -116 18 -60 39
-89 64 -89 10 0 -37 147 -62 194 -24 44 -90 106 -114 106 -4 0 -8 -10 -8 -23z"/>
<path d="M7267 1723 c-17 -17 -6 -105 20 -155 23 -44 27 -64 28 -149 2 -98 11
-129 41 -129 10 0 14 16 14 59 0 42 5 62 16 72 15 13 16 9 11 -41 -3 -30 -13
-101 -23 -157 -16 -97 -16 -104 0 -148 10 -25 20 -45 22 -42 8 7 44 315 44
373 0 57 -2 62 -24 68 -19 5 -26 17 -40 72 -21 86 -90 197 -109 177z"/>
<path d="M7455 1719 c-10 -16 22 -93 50 -119 l24 -23 6 25 c7 29 -9 75 -37
106 -24 25 -34 27 -43 11z"/>
<path d="M476 1707 c-10 -7 -17 -20 -15 -29 3 -13 9 -14 39 -4 42 13 54 46 18
46 -13 0 -32 -6 -42 -13z"/>
<path d="M1301 1701 c-18 -12 -5 -31 22 -31 29 0 51 15 43 29 -8 13 -45 14
-65 2z"/>
<path d="M1080 1684 c-104 -16 -258 -54 -311 -78 l-34 -14 30 -1 c17 -1 68 8
114 19 69 17 225 39 278 40 14 0 43 28 43 41 0 11 0 11 -120 -7z"/>
<path d="M5642 1691 c4 -11 108 -95 136 -110 11 -6 30 -11 42 -11 19 0 18 4
-15 45 -21 25 -52 54 -70 65 -32 20 -100 28 -93 11z"/>
<path d="M6230 1639 c0 -6 24 -35 53 -63 29 -28 63 -71 74 -96 12 -25 41 -85
64 -135 l43 -90 4 40 c2 22 -1 56 -7 77 -12 40 -118 207 -159 251 -26 27 -72
37 -72 16z"/>
<path d="M363 1630 c-23 -5 -72 -18 -109 -30 -37 -11 -102 -23 -144 -27 -46
-3 -82 -12 -93 -21 -17 -16 -17 -16 1 -23 11 -4 52 -3 92 2 40 6 74 8 77 5 3
-3 17 3 30 14 13 10 57 26 98 35 43 10 81 25 91 36 19 21 19 21 -43 9z"/>
<path d="M6178 1613 c-13 -3 -18 -14 -18 -37 0 -29 4 -34 37 -44 41 -13 53 -5
53 35 0 19 -35 55 -50 52 -3 -1 -13 -3 -22 -6z"/>
<path d="M5955 1589 c5 -7 37 -52 71 -99 68 -93 98 -148 108 -197 4 -17 14
-37 22 -44 21 -18 18 28 -7 103 -23 70 -45 104 -103 166 -45 48 -105 95 -91
71z"/>
<path d="M7580 1561 c0 -11 11 -28 24 -38 33 -26 56 -101 56 -182 0 -53 4 -74
19 -92 11 -13 23 -20 27 -16 4 4 3 56 -3 115 -12 128 -37 193 -82 216 -38 20
-41 20 -41 -3z"/>
<path d="M7770 1527 c0 -7 7 -36 15 -63 8 -27 18 -77 21 -111 4 -40 13 -68 24
-78 17 -15 18 -14 25 23 9 53 -12 165 -39 204 -23 35 -46 47 -46 25z"/>
<path d="M5051 1494 c7 -9 39 -29 70 -45 32 -16 64 -37 71 -48 8 -11 33 -26
57 -34 65 -23 118 -65 191 -152 37 -44 78 -89 90 -100 22 -19 21 -16 -6 34
-43 81 -152 192 -221 226 -32 16 -75 44 -97 63 -44 39 -110 71 -145 72 -20 0
-22 -2 -10 -16z"/>
<path d="M5890 1475 c0 -18 16 -56 40 -95 22 -36 43 -81 46 -100 9 -57 14 -68
31 -74 14 -6 15 1 11 52 -6 65 -47 155 -97 212 l-30 35 -1 -30z"/>
<path d="M6877 1478 c-12 -46 12 -98 44 -98 22 0 26 38 8 89 -13 37 -44 42
-52 9z"/>
<path d="M6605 1458 c16 -71 74 -158 106 -158 11 0 -17 107 -35 134 -9 14 -30
33 -47 42 l-31 16 7 -34z"/>
<path d="M971 1454 c-135 -17 -231 -37 -426 -86 -164 -41 -202 -55 -224 -82
-12 -14 -9 -16 18 -16 18 0 49 9 69 19 61 31 139 48 491 106 184 31 341 60
350 65 24 14 -153 10 -278 -6z"/>
<path d="M6247 1413 c9 -69 23 -110 44 -137 29 -37 38 -32 32 17 -9 73 -23
116 -45 137 -31 29 -37 25 -31 -17z"/>
<path d="M7584 1365 c3 -49 9 -139 12 -200 6 -138 9 -152 35 -166 l22 -11 -5
173 c-6 178 -14 222 -51 269 l-19 25 6 -90z"/>
<path d="M7070 1383 c0 -10 10 -38 22 -63 18 -38 23 -70 28 -205 6 -149 18
-215 41 -215 4 0 10 52 14 117 8 119 -5 257 -27 311 -25 58 -78 95 -78 55z"/>
<path d="M6021 1367 c-10 -13 -9 -21 3 -45 8 -16 22 -60 31 -98 9 -38 25 -80
36 -94 l21 -25 -5 77 c-5 73 -26 139 -59 181 -12 17 -15 17 -27 4z"/>
<path d="M4859 1268 c-8 -30 -9 -118 -4 -298 7 -256 -3 -508 -26 -638 -10 -53
-9 -66 5 -87 9 -14 20 -25 25 -25 21 0 50 510 51 906 0 148 -2 173 -16 178
-23 9 -22 10 -35 -36z"/>
<path d="M5780 1285 c0 -3 18 -46 39 -96 37 -84 68 -135 78 -125 8 7 -18 119
-34 150 -22 42 -83 95 -83 71z"/>
<path d="M5530 1216 c0 -8 20 -32 44 -53 39 -33 48 -49 71 -128 29 -96 63
-175 74 -175 8 0 -2 95 -14 145 -21 83 -89 181 -147 211 -24 13 -28 13 -28 0z"/>
<path d="M5007 1173 c-3 -21 0 -89 6 -151 10 -100 9 -119 -7 -165 -16 -48 -16
-59 -3 -141 12 -75 13 -107 1 -215 -7 -69 -10 -157 -7 -196 3 -39 1 -87 -5
-108 -11 -41 -2 -87 18 -87 6 0 18 17 27 37 12 30 17 112 24 418 11 437 11
436 -1 490 -5 22 -10 66 -10 98 0 49 -3 57 -19 57 -14 0 -20 -9 -24 -37z"/>
<path d="M7818 1193 c-1 -10 -2 -81 -2 -158 -1 -77 -5 -172 -10 -212 -6 -53
-5 -80 4 -103 7 -16 16 -30 20 -30 19 0 38 394 24 483 -7 38 -32 52 -36 20z"/>
<path d="M6468 1134 c-8 -7 10 -71 30 -109 10 -18 18 -70 22 -135 6 -99 21
-150 44 -150 14 0 -1 248 -18 304 -19 61 -60 109 -78 90z"/>
<path d="M2536 1118 c-14 -46 -26 -147 -28 -235 -1 -88 1 -106 17 -123 19 -20
19 -21 26 -2 14 38 30 209 27 287 -2 67 -6 80 -21 83 -9 2 -19 -2 -21 -10z"/>
<path d="M7467 945 c4 -117 1 -217 -5 -259 -9 -53 -8 -76 1 -95 36 -73 57 7
57 213 0 155 -12 241 -40 296 -18 35 -18 33 -13 -155z"/>
<path d="M2639 1093 c-1 -16 0 -32 2 -38 1 -5 3 -84 3 -175 1 -146 3 -169 20
-195 l20 -30 8 30 c10 37 13 306 3 360 -11 66 -16 75 -36 75 -14 0 -19 -7 -20
-27z"/>
<path d="M2402 1058 c-10 -40 0 -93 24 -119 27 -30 34 -23 34 41 0 97 -39 149
-58 78z"/>
<path d="M5166 1040 c-21 -53 -20 -88 4 -135 17 -33 18 -45 9 -78 -7 -25 -8
-85 -3 -164 5 -90 3 -140 -6 -179 -11 -44 -11 -64 0 -108 10 -44 10 -69 0
-133 -10 -61 -10 -84 -1 -101 33 -62 40 -11 52 378 11 375 11 344 2 450 -11
120 -28 141 -57 70z"/>
<path d="M7220 1060 c0 -5 7 -10 15 -10 8 0 15 5 15 10 0 6 -7 10 -15 10 -8 0
-15 -4 -15 -10z"/>
<path d="M6933 1045 c-22 -54 7 -205 39 -205 16 0 4 160 -14 195 -15 28 -17
29 -25 10z"/>
<path d="M7037 1023 c-14 -13 -6 -63 20 -129 26 -67 27 -76 29 -289 2 -211 3
-220 22 -223 13 -2 23 4 27 17 8 25 -12 385 -26 466 -9 53 -51 165 -62 165 -2
0 -7 -3 -10 -7z"/>
<path d="M7654 953 c-24 -108 -23 -202 1 -239 l20 -29 7 90 c5 50 12 123 16
163 7 65 6 74 -9 83 -16 8 -20 0 -35 -68z"/>
<path d="M7250 955 c0 -31 -12 -138 -26 -238 -15 -108 -23 -198 -19 -222 3
-22 7 -57 8 -77 3 -50 11 -54 37 -21 21 27 22 34 15 153 -5 94 -3 149 9 222
25 155 20 238 -16 238 -4 0 -8 -25 -8 -55z"/>
<path d="M2750 962 c-22 -82 -31 -212 -21 -288 14 -97 28 -127 57 -120 18 5
23 1 26 -16 4 -32 44 -37 53 -8 10 31 -16 140 -33 140 -8 0 -16 -9 -19 -20 -3
-11 -9 -20 -13 -20 -14 0 -18 63 -13 200 4 110 2 139 -10 155 -14 19 -16 18
-27 -23z"/>
<path d="M6853 878 c24 -95 30 -142 35 -290 6 -146 10 -180 24 -194 15 -15 17
-13 24 42 21 174 -43 554 -95 554 -15 0 -14 -11 12 -112z"/>
<path d="M6383 893 c-12 -56 -9 -201 4 -214 17 -17 44 43 50 110 5 58 -14 132
-35 139 -6 2 -14 -14 -19 -35z"/>
<path d="M6206 903 c-3 -10 -8 -54 -12 -98 -5 -63 -3 -89 10 -119 10 -24 20
-36 25 -30 16 17 31 168 20 206 -12 45 -35 67 -43 41z"/>
<path d="M1927 893 c-12 -11 -7 -33 7 -33 12 0 26 20 26 36 0 7 -26 5 -33 -3z"/>
<path d="M5301 869 c-16 -46 -13 -111 9 -218 23 -110 25 -177 6 -285 -8 -43
-12 -93 -9 -111 6 -37 38 -83 50 -72 9 10 6 455 -5 607 -6 85 -10 105 -23 108
-11 2 -20 -8 -28 -29z"/>
<path d="M6779 883 c-3 -24 5 -59 15 -65 20 -13 26 -9 26 22 0 19 -7 33 -20
40 -11 6 -20 7 -21 3z"/>
<path d="M6636 804 c5 -50 4 -68 -6 -74 -10 -6 -11 -12 -3 -22 21 -26 25 -81
13 -201 -11 -110 -11 -126 4 -162 21 -50 30 -38 45 62 15 97 14 216 -4 348 -8
61 -15 111 -15 113 0 1 -9 2 -20 2 -19 0 -20 -4 -14 -66z"/>
<path d="M5987 817 c-2 -7 0 -37 5 -67 5 -30 11 -113 11 -185 2 -107 5 -130
17 -130 43 0 53 250 14 378 -6 20 -40 23 -47 4z"/>
<path d="M1631 738 c-15 -43 -13 -139 3 -160 32 -42 46 -12 46 99 0 61 -3 74
-19 83 -16 8 -21 5 -30 -22z"/>
<path d="M1525 687 c-10 -87 -5 -111 23 -115 21 -3 22 -1 22 87 0 83 -2 91
-19 91 -16 0 -20 -10 -26 -63z"/>
<path d="M5770 510 c0 -127 4 -220 9 -220 5 0 17 20 27 45 15 40 16 68 11 212
-6 161 -11 182 -39 183 -5 0 -8 -99 -8 -220z"/>
<path d="M1717 683 c-9 -8 -9 -46 -1 -67 10 -25 48 -19 77 12 l27 28 -35 17
c-38 18 -58 21 -68 10z"/>
<path d="M2451 570 c-16 -75 -14 -107 10 -131 28 -28 36 -15 45 74 6 57 4 70
-11 87 -27 29 -32 25 -44 -30z"/>
<path d="M2334 574 c-9 -33 2 -134 17 -168 29 -62 55 8 44 118 -6 72 -8 76
-31 76 -17 0 -25 -7 -30 -26z"/>
<path d="M6150 571 c14 -28 12 -101 -5 -196 -15 -81 -10 -135 14 -135 23 0 46
96 46 190 0 100 -19 160 -51 160 -11 0 -12 -4 -4 -19z"/>
<path d="M6383 564 c-3 -8 -3 -41 0 -73 4 -35 1 -79 -8 -116 -20 -86 -19 -148
3 -169 18 -16 20 -11 41 123 20 127 21 172 4 234 -6 21 -32 22 -40 1z"/>
<path d="M1867 563 c-10 -10 -8 -66 3 -83 14 -22 44 0 48 34 5 40 -29 72 -51
49z"/>
<path d="M2573 509 c7 -59 22 -81 51 -77 48 7 14 128 -35 128 -20 0 -21 -4
-16 -51z"/>
<path d="M1695 470 c-21 -23 -15 -58 18 -94 27 -31 70 -39 75 -13 2 12 -3 17
-17 17 -15 0 -21 6 -21 24 0 43 -12 86 -25 86 -6 0 -20 -9 -30 -20z"/>
<path d="M5415 430 c-11 -34 -22 -165 -17 -198 5 -37 12 -39 35 -14 23 25 25
217 3 225 -9 4 -17 -2 -21 -13z"/>
</g>
</svg>
